<?xml version="1.0" encoding="iso-8859-1"?>
<!-- Generator: Adobe Illustrator 19.0.0, SVG Export Plug-In . SVG Version: 6.00 Build 0)  -->
<svg version="1.1" id="Layer_1" xmlns="http://www.w3.org/2000/svg" xmlns:xlink="http://www.w3.org/1999/xlink" x="0px" y="0px"
	 viewBox="0 0 512 512" style="enable-background:new 0 0 512 512;" xml:space="preserve">
<circle style="fill:#386895;" cx="256" cy="256" r="256"/>
<path style="fill:#273B7A;" d="M286.144,510.224c114.323-13.414,205.619-102.133,222.904-215.228L314.211,100.624l-101.883,5.97
	l-0.862,0.072l-7.363-5.423l-5.891,7.242l10.883,13.984v170.953l-21.19-23.343l-28.472,6.051l52.895,52.895v51.028l-31.665,22.016
	l21.638,21.638l-1.179,1.496L286.144,510.224z"/>
<path style="fill:#D0D1D3;" d="M307.271,97.401H204.728c-4.53,0-8.204,3.088-8.204,6.896s3.672,6.896,8.204,6.896h0.512v52.148
	h7.178v-49.562h33.839v49.562h19.484v-49.562h33.839v49.562h7.178v-52.148h0.512c4.53,0,8.204-3.088,8.204-6.896
	C315.475,100.488,311.803,97.401,307.271,97.401z"/>
<path style="fill:#A6A8AA;" d="M307.271,97.401h-51.845v65.939h10.316v-49.562h33.839v49.562h7.178v-52.148h0.512
	c4.53,0,8.204-3.088,8.204-6.896C315.475,100.488,311.803,97.401,307.271,97.401z"/>
<path style="fill:#D0D1D3;" d="M205,398.222h101.998c3.253,0,5.891,2.638,5.891,5.891v16.665c0,3.253-2.638,5.891-5.891,5.891H205
	c-3.253,0-5.889-2.638-5.889-5.891v-16.665C199.111,400.86,201.749,398.222,205,398.222z"/>
<path style="fill:#A6A8AA;" d="M306.998,398.222h-51.574v28.444h51.574c3.253,0,5.891-2.638,5.891-5.891v-16.665
	C312.889,400.86,310.251,398.222,306.998,398.222z"/>
<path style="fill:#FFFFFF;" d="M208.306,414.168h95.389c20.787,0,37.638-16.851,37.638-37.638V195.808
	c0-20.787-16.851-37.64-37.638-37.64h-95.389c-20.789,0-37.64,16.851-37.64,37.64V376.53
	C170.667,397.317,187.518,414.168,208.306,414.168z"/>
<g>
	<path style="fill:#D0D1D3;" d="M303.695,158.168h-48.269v256h48.269c20.787,0,37.638-16.851,37.638-37.638V195.806
		C341.333,175.02,324.482,158.168,303.695,158.168z"/>
	<path style="fill:#D0D1D3;" d="M343.057,281.428H168.943c-6.189,0-11.205-5.017-11.205-11.205l0,0
		c0-6.189,5.017-11.205,11.205-11.205h174.114c6.189,0,11.205,5.017,11.205,11.205l0,0
		C354.263,276.411,349.246,281.428,343.057,281.428z"/>
</g>
<path style="fill:#A6A8AA;" d="M343.057,259.017h-87.631v22.411h87.631c6.189,0,11.205-5.017,11.205-11.205
	C354.263,264.033,349.246,259.017,343.057,259.017z"/>
<g>
</g>
<g>
</g>
<g>
</g>
<g>
</g>
<g>
</g>
<g>
</g>
<g>
</g>
<g>
</g>
<g>
</g>
<g>
</g>
<g>
</g>
<g>
</g>
<g>
</g>
<g>
</g>
<g>
</g>
</svg>
